<svg xmlns="http://www.w3.org/2000/svg" width="1024" height="1024" viewBox="0 0 1024 1024">
<defs>
  <clipPath id="rounded">
    <rect width="1024" height="1024" rx="230" ry="230"/>
  </clipPath>
</defs>
<g clip-path="url(#rounded)">
<path d="M 685.79 699.97 C674.90,701.12 647.27,701.12 636.31,699.97 C600.47,696.20 565.03,682.20 535.92,660.32 C526.85,653.50 504.40,631.48 502.06,627.11 C501.03,625.19 502.17,623.72 514.21,611.37 C540.53,584.39 566.62,564.96 599.53,547.85 C619.93,537.24 651.75,524.88 670.00,520.47 C679.90,518.08 677.43,517.43 666.29,519.49 C616.40,528.71 568.18,549.03 526.56,578.36 C508.53,591.06 494.60,602.89 459.86,635.00 C421.10,670.83 392.45,687.62 357.50,694.99 C344.41,697.74 318.11,698.76 304.40,697.04 C270.38,692.77 244.31,678.39 225.91,653.74 C220.31,646.25 212.00,631.14 212.00,628.46 C212.00,627.29 242.77,610.35 243.44,611.16 C243.59,611.35 245.82,615.60 248.39,620.62 C257.21,637.83 272.94,651.67 290.25,657.46 C318.89,667.03 346.23,660.78 383.58,636.12 C395.09,628.52 405.74,620.78 434.11,599.42 C496.74,552.25 546.84,527.23 613.00,510.08 C657.31,498.60 689.62,495.18 761.75,494.32 L 813.00 493.71 L 813.00 643.74 L 804.25 651.06 C772.09,677.93 730.07,695.28 685.79,699.97 ZM 640.50 665.51 C654.75,667.35 677.79,666.73 693.00,664.09 C720.57,659.32 746.71,648.66 768.25,633.42 L 776.00 627.94 L 776.00 529.00 L 763.25 529.01 C711.33,529.05 659.69,542.88 622.03,566.83 C605.61,577.26 586.49,594.71 575.81,609.00 C568.32,619.02 560.72,631.74 561.48,632.97 C562.67,634.89 574.56,642.80 583.00,647.28 C600.88,656.78 620.09,662.87 640.50,665.51 ZM 477.50 553.46 C473.10,556.29 468.96,558.93 468.30,559.33 C466.93,560.16 465.97,557.08 463.58,544.25 C457.59,512.12 460.13,473.83 470.30,442.95 C487.08,391.98 524.87,352.94 576.80,332.95 C630.64,312.21 701.37,315.04 753.54,340.02 C769.59,347.70 799.00,368.44 799.00,372.07 C799.00,372.99 794.21,378.51 781.85,391.82 L 775.05 399.15 L 766.78 392.22 C755.82,383.05 749.80,378.93 738.71,373.03 C712.96,359.32 688.89,353.68 656.00,353.66 C623.60,353.64 598.12,359.86 572.51,374.04 C531.92,396.53 505.60,435.69 499.07,483.32 C497.64,493.75 497.80,521.47 499.35,531.77 L 500.60 540.04 L 493.05 544.18 C488.90,546.46 481.90,550.63 477.50,553.46 ZM 385.83 619.01 C381.06,622.31 376.85,625.00 376.47,625.00 C376.10,625.00 376.10,624.21 376.49,623.25 C378.27,618.87 379.69,615.69 380.83,612.41 C385.43,599.16 385.46,584.32 385.69,483.23 C385.71,475.58 385.73,467.43 385.75,458.75 L 386.08 326.00 L 422.00 326.00 L 421.93 455.25 C421.89,526.34 421.55,586.50 421.18,588.94 C420.52,593.25 420.10,593.69 407.50,603.21 C400.35,608.61 390.60,615.72 385.83,619.01 ZM 680.00 517.00 C680.00,518.26 682.04,518.26 684.00,517.00 C685.17,516.24 684.89,516.03 682.75,516.02 C681.24,516.01 680.00,516.45 680.00,517.00 Z" fill="rgb(1,1,1)"/>
<path d="M 680.00 517.00 C680.00,516.45 681.24,516.01 682.75,516.02 C684.89,516.03 685.17,516.24 684.00,517.00 C682.04,518.26 680.00,518.26 680.00,517.00 Z" fill="rgb(122,122,122)"/>
<path d="M 0.00 512.00 L 0.00 0.00 L 512.00 0.00 L 1024.00 0.00 L 1024.00 512.00 L 1024.00 1024.00 L 512.00 1024.00 L 0.00 1024.00 L 0.00 512.00 ZM 685.79 699.97 C730.07,695.28 772.09,677.93 804.25,651.06 L 813.00 643.74 L 813.00 568.73 L 813.00 493.71 L 761.75 494.32 C689.62,495.18 657.31,498.60 613.00,510.08 C546.84,527.23 496.74,552.25 434.11,599.42 C405.74,620.78 395.09,628.52 383.58,636.12 C346.23,660.78 318.89,667.03 290.25,657.46 C272.94,651.67 257.21,637.83 248.39,620.62 C245.82,615.60 243.59,611.35 243.44,611.16 C242.77,610.35 212.00,627.29 212.00,628.46 C212.00,631.14 220.31,646.25 225.91,653.74 C244.31,678.39 270.38,692.77 304.40,697.04 C318.11,698.76 344.41,697.74 357.50,694.99 C392.45,687.62 421.10,670.83 459.86,635.00 C494.60,602.89 508.53,591.06 526.56,578.36 C568.18,549.03 616.40,528.71 666.29,519.49 C677.43,517.43 679.90,518.08 670.00,520.47 C651.75,524.88 619.93,537.24 599.53,547.85 C566.62,564.96 540.53,584.39 514.21,611.37 C502.17,623.72 501.03,625.19 502.06,627.11 C504.40,631.48 526.85,653.50 535.92,660.32 C565.03,682.20 600.47,696.20 636.31,699.97 C647.27,701.12 674.90,701.12 685.79,699.97 ZM 385.83 619.01 C390.60,615.72 400.35,608.61 407.50,603.21 C420.10,593.69 420.52,593.25 421.18,588.94 C421.55,586.50 421.89,526.34 421.93,455.25 L 422.00 326.00 L 404.04 326.00 L 386.08 326.00 L 385.75 458.75 C385.37,610.46 385.96,599.88 376.49,623.25 C376.10,624.21 376.10,625.00 376.47,625.00 C376.85,625.00 381.06,622.31 385.83,619.01 ZM 477.50 553.46 C481.90,550.63 488.90,546.46 493.05,544.18 L 500.60 540.04 L 499.35 531.77 C497.80,521.47 497.64,493.75 499.07,483.32 C505.60,435.69 531.92,396.53 572.51,374.04 C598.12,359.86 623.60,353.64 656.00,353.66 C688.89,353.68 712.96,359.32 738.71,373.03 C749.80,378.93 755.82,383.05 766.78,392.22 L 775.05 399.15 L 781.85 391.82 C794.21,378.51 799.00,372.99 799.00,372.07 C799.00,368.44 769.59,347.70 753.54,340.02 C701.37,315.04 630.64,312.21 576.80,332.95 C524.87,352.94 487.08,391.98 470.30,442.95 C460.13,473.83 457.59,512.12 463.58,544.25 C465.97,557.08 466.93,560.16 468.30,559.33 C468.96,558.93 473.10,556.29 477.50,553.46 ZM 640.50 665.51 C620.09,662.87 600.88,656.78 583.00,647.28 C574.56,642.80 562.67,634.89 561.48,632.97 C560.72,631.74 568.32,619.02 575.81,609.00 C586.49,594.71 605.61,577.26 622.03,566.83 C659.69,542.88 711.33,529.05 763.25,529.01 L 776.00 529.00 L 776.00 578.47 L 776.00 627.94 L 768.25 633.42 C746.71,648.66 720.57,659.32 693.00,664.09 C677.79,666.73 654.75,667.35 640.50,665.51 Z" fill="rgb(254,254,254)"/>
</g>
</svg>